<svg xmlns="http://www.w3.org/2000/svg" xmlns:xlink="http://www.w3.org/1999/xlink" viewBox="0 0 1920 1080"><defs><style>.cls-1{fill:none;}.cls-2{fill:#ead6b9;}.cls-3{fill:#eadac3;}.cls-4{isolation:isolate;}.cls-5{fill:#efefef;}.cls-6{fill:#b7692c;}.cls-7{fill:#cecac0;}.cls-8{fill:#fff;}.cls-9{fill:#bf7c47;}.cls-10{fill:#ad540e;}.cls-11{fill:#e3cf52;}.cls-12{fill:#8cd1de;}.cls-13{fill:#a5dbe5;}.cls-14{fill:#d8bb6c;}.cls-15{fill:#d0ad4e;}.cls-16{fill:#e6d3a0;}.cls-17{fill:#e3ce95;}.cls-18{fill:#d9bc6e;}.cls-19{fill:#eddfba;}.cls-20{fill:#7db681;}.cls-21{fill:#ccead3;}.cls-21,.cls-35,.cls-43{mix-blend-mode:multiply;}.cls-22{fill:#5d9cbd;}.cls-23{fill:#795a69;}.cls-24{fill:#e74037;}.cls-25{fill:#ec736b;}.cls-26{fill:#e28d23;}.cls-27{fill:#444847;}.cls-28{fill:#d5b600;}.cls-29{fill:#e7e3cd;}.cls-30{fill:#f1e1c7;}.cls-31,.cls-35{fill:url(#New_Pattern_2);}.cls-32{fill:#f4b472;}.cls-33{fill:#f7725d;}.cls-34{fill:#7b472d;}.cls-35,.cls-43{opacity:0.3;}.cls-36{fill:#f79477;}.cls-37{fill:#f1e6d2;}.cls-38,.cls-43{fill:url(#New_Pattern_3);}.cls-39{fill:#f78077;}.cls-40{fill:#f4c5b0;}.cls-41{fill:#307875;}.cls-42{fill:#256863;}</style><pattern id="New_Pattern_2" data-name="New Pattern 2" width="64" height="55" patternTransform="translate(22 9)" patternUnits="userSpaceOnUse" viewBox="0 0 64 55"><rect class="cls-1" width="64" height="55"/><path class="cls-2" d="M119.83,88.94l-4.32,7.2,6,10-11.78-.08L104,116.35,98.2,106.08l-8.57.06v0H86.42v0l-8.57-.06-5.77,10.27-5.77-10.27-11.78.08,6-10-6-10,11.78.09,5.77-10.28.08.14,4.32-7.2-6-10,11.78.08L88,48.65,93.8,58.92l8.57-.06v0h3.22v0l8.57.06,5.77-10.27,5.77,10.27,11.78-.08-6,10,6,10-11.78-.09-5.77,10.28ZM124,78l-4.11-7.32L115.8,78l4.11,7.32Zm-18.44-1L114,77l4.32-7.21-8.4.06Zm28.66,0-4.32-7.2-8.4-.06L125.84,77Zm0-16.36-8.4.06-4.32,7.2,8.4-.06Zm-18.44-1L119.91,67,124,59.68l-4.11-7.32Zm-10.22,1,4.32,7.2,8.4.06L114,60.74Zm-1.61.85-4.4,7.33,4.32,7.2.08-.14.08.14,4.32-7.2ZM102.36,77,98,69.84l-8.4-.06L94,77ZM83.92,78,88,85.36,92.14,78,88,70.72Zm5.76,8.1,8.52.06,4.12-7.34L93.8,78.8Zm0,1.82L94,95.16l8.4.06L98,88Zm18.44-1L104,79.64,99.86,87,104,94.28Zm-5.72-26.28-8.4.06-4.32,7.2,8.4-.06Zm-18.44-1L88,67l4.11-7.32L88,52.36Zm-10.22,1L78,67.88l8.4.06-4.32-7.2ZM73.7,77,82.1,77l4.32-7.21-8.4.06Zm0,1.82,4.12,7.34,8.52-.06L82.26,78.8ZM86.42,88,78,88,73.7,95.22l8.4-.06ZM68,87l4.11,7.32L76.2,87l-4.11-7.32ZM57.76,88l4.32,7.2,8.4.06L66.16,88Zm0,16.36,8.4-.06,4.32-7.2-8.4.06Zm18.44,1L72.09,98,68,105.32l4.11,7.32Zm10.22-1-4.32-7.2-8.4-.06,4.32,7.2Zm1.61-.85,4.4-7.33-4.32-7.2-.08.14L88,88.94l-4.32,7.2Zm1.61.85,8.4-.06,4.32-7.2-8.4.06Zm18.44,1L104,98l-4.11,7.32,4.11,7.32Zm10.22-1L114,97.12l-8.4-.06,4.32,7.2Zm0-16.36-8.4.05-4.32,7.21,8.4-.06Zm0-1.82-4.12-7.34-8.52.06,4.12,7.34Z"/><path class="cls-2" d="M55.83,88.94l-4.32,7.2,6,10-11.78-.08L40,116.35,34.2,106.08l-8.57.06v0H22.42v0l-8.57-.06L8.09,116.35,2.32,106.08l-11.78.08,6-10-6-10,11.78.09L8.09,75.92l.08.14,4.32-7.2-6-10,11.78.08L24,48.65,29.8,58.92l8.57-.06v0h3.22v0l8.57.06,5.77-10.27,5.77,10.27,11.78-.08-6,10,6,10L61.68,78.8,55.91,89.08ZM60,78l-4.11-7.32L51.8,78l4.11,7.32ZM41.58,77,50,77l4.32-7.21-8.4.06Zm28.66,0-4.32-7.2-8.4-.06L61.84,77Zm0-16.36-8.4.06-4.32,7.2,8.4-.06Zm-18.44-1L55.91,67,60,59.68l-4.11-7.32Zm-10.22,1,4.32,7.2,8.4.06L50,60.74ZM40,61.53l-4.4,7.33,4.32,7.2.08-.14.08.14,4.32-7.2ZM38.36,77,34,69.84l-8.4-.06L30,77ZM19.92,78,24,85.36,28.14,78,24,70.72Zm5.76,8.1,8.52.06,4.12-7.34L29.8,78.8Zm0,1.82L30,95.16l8.4.06L34,88Zm18.44-1L40,79.64,35.86,87,40,94.28ZM38.36,60.68l-8.4.06-4.32,7.2,8.4-.06Zm-18.44-1L24,67l4.11-7.32L24,52.36Zm-10.22,1L14,67.88l8.4.06-4.32-7.2ZM9.7,77,18.1,77l4.32-7.21-8.4.06Zm0,1.82,4.12,7.34,8.52-.06L18.26,78.8ZM22.42,88,14,88,9.7,95.22l8.4-.06ZM4,87l4.11,7.32L12.2,87,8.09,79.64ZM-6.24,88l4.32,7.2,8.4.06L2.16,88Zm0,16.36,8.4-.06,4.32-7.2-8.4.06Zm18.44,1L8.09,98,4,105.32l4.11,7.32Zm10.22-1-4.32-7.2-8.4-.06,4.32,7.2Zm1.61-.85,4.4-7.33-4.32-7.2-.08.14L24,88.94l-4.32,7.2Zm1.61.85,8.4-.06,4.32-7.2-8.4.06Zm18.44,1L40,98l-4.11,7.32L40,112.64Zm10.22-1L50,97.12l-8.4-.06,4.32,7.2ZM54.3,88,45.9,88l-4.32,7.21,8.4-.06Zm0-1.82L50.14,78.8l-8.52.06,4.12,7.34Z"/><path class="cls-2" d="M-8.17,88.94l-4.32,7.2,6,10-11.78-.08L-24,116.35l-5.77-10.27-8.57.06v0h-3.22v0l-8.57-.06-5.77,10.27-5.77-10.27-11.78.08,6-10-6-10,11.78.09,5.77-10.28.08.14,4.32-7.2-6-10,11.78.08L-40,48.65l5.77,10.27,8.57-.06v0h3.22v0l8.57.06,5.77-10.27,5.77,10.27,11.78-.08-6,10,6,10L-2.32,78.8-8.09,89.08ZM-4,78l-4.11-7.32L-12.2,78l4.11,7.32Zm-18.44-1L-14,77l4.32-7.21-8.4.06ZM6.24,77l-4.32-7.2-8.4-.06L-2.16,77Zm0-16.36-8.4.06-4.32,7.2,8.4-.06Zm-18.44-1L-8.09,67-4,59.68l-4.11-7.32Zm-10.22,1,4.32,7.2,8.4.06L-14,60.74Zm-1.61.85-4.4,7.33,4.32,7.2.08-.14.08.14,4.32-7.2ZM-25.64,77-30,69.84l-8.4-.06L-34,77Zm-18.44,1L-40,85.36-35.86,78-40,70.72Zm5.76,8.1,8.52.06,4.12-7.34-8.52-.06Zm0,1.82,4.32,7.2,8.4.06L-30,88Zm18.44-1L-24,79.64-28.14,87-24,94.28Zm-5.72-26.28-8.4.06-4.32,7.2,8.4-.06Zm-18.44-1L-40,67l4.11-7.32L-40,52.36Zm-10.22,1,4.32,7.2,8.4.06-4.32-7.2Zm0,16.36,8.4-.05,4.32-7.21-8.4.06Zm0,1.82,4.12,7.34,8.52-.06-4.12-7.34ZM-41.58,88-50,88l-4.32,7.21,8.4-.06ZM-60,87l4.11,7.32L-51.8,87l-4.11-7.32Zm-10.22,1,4.32,7.2,8.4.06L-61.84,88Zm0,16.36,8.4-.06,4.32-7.2-8.4.06Zm18.44,1L-55.91,98-60,105.32l4.11,7.32Zm10.22-1-4.32-7.2-8.4-.06,4.32,7.2Zm1.61-.85,4.4-7.33-4.32-7.2-.08.14-.08-.14-4.32,7.2Zm1.61.85,8.4-.06,4.32-7.2-8.4.06Zm18.44,1L-24,98l-4.11,7.32,4.11,7.32Zm10.22-1L-14,97.12l-8.4-.06,4.32,7.2ZM-9.7,88l-8.4.05-4.32,7.21,8.4-.06Zm0-1.82-4.12-7.34-8.52.06,4.12,7.34Z"/><path class="cls-2" d="M119.83,33.94l-4.32,7.2,6,10-11.78-.08L104,61.35,98.2,51.08l-8.57.06v0H86.42v0l-8.57-.06L72.09,61.35,66.32,51.08l-11.78.08,6-10-6-10,11.78.09,5.77-10.28.08.14,4.32-7.2-6-10,11.78.08L88-6.35,93.8,3.92l8.57-.06v0h3.22v0l8.57.06,5.77-10.27,5.77,10.27,11.78-.08-6,10,6,10-11.78-.09-5.77,10.28ZM124,23l-4.11-7.32L115.8,23l4.11,7.32Zm-18.44-1L114,22l4.32-7.21-8.4.06Zm28.66,0-4.32-7.2-8.4-.06L125.84,22Zm0-16.36-8.4.06-4.32,7.2,8.4-.06Zm-18.44-1L119.91,12,124,4.68l-4.11-7.32Zm-10.22,1,4.32,7.2,8.4.06L114,5.74ZM104,6.53l-4.4,7.33,4.32,7.2.08-.14.08.14,4.32-7.2ZM102.36,22,98,14.84l-8.4-.06L94,22ZM83.92,23,88,30.36,92.14,23,88,15.72Zm5.76,8.1,8.52.06,4.12-7.34L93.8,23.8Zm0,1.82L94,40.16l8.4.06L98,33Zm18.44-1L104,24.64,99.86,32,104,39.28ZM102.36,5.68,94,5.74l-4.32,7.2,8.4-.06Zm-18.44-1L88,12l4.11-7.32L88-2.64Zm-10.22,1L78,12.88l8.4.06L82.1,5.74ZM73.7,22,82.1,22l4.32-7.21-8.4.06Zm0,1.82,4.12,7.34,8.52-.06L82.26,23.8ZM86.42,33,78,33,73.7,40.22l8.4-.06ZM68,32l4.11,7.32L76.2,32l-4.11-7.32ZM57.76,33l4.32,7.2,8.4.06L66.16,33Zm0,16.36,8.4-.06,4.32-7.2-8.4.06Zm18.44,1L72.09,43,68,50.32l4.11,7.32Zm10.22-1-4.32-7.2-8.4-.06L78,49.26ZM88,48.47l4.4-7.33-4.32-7.2-.08.14L88,33.94l-4.32,7.2Zm1.61.85,8.4-.06,4.32-7.2-8.4.06Zm18.44,1L104,43l-4.11,7.32L104,57.64Zm10.22-1L114,42.12l-8.4-.06,4.32,7.2Zm0-16.36-8.4,0-4.32,7.21,8.4-.06Zm0-1.82-4.12-7.34-8.52.06,4.12,7.34Z"/><path class="cls-2" d="M55.83,33.94l-4.32,7.2,6,10-11.78-.08L40,61.35,34.2,51.08l-8.57.06v0H22.42v0l-8.57-.06L8.09,61.35,2.32,51.08l-11.78.08,6-10-6-10,11.78.09L8.09,20.92l.08.14,4.32-7.2-6-10,11.78.08L24-6.35,29.8,3.92l8.57-.06v0h3.22v0l8.57.06L55.91-6.35,61.68,3.92l11.78-.08-6,10,6,10L61.68,23.8,55.91,34.08ZM60,23l-4.11-7.32L51.8,23l4.11,7.32ZM41.58,22,50,22l4.32-7.21-8.4.06Zm28.66,0-4.32-7.2-8.4-.06L61.84,22Zm0-16.36-8.4.06-4.32,7.2,8.4-.06Zm-18.44-1L55.91,12,60,4.68,55.91-2.64Zm-10.22,1,4.32,7.2,8.4.06L50,5.74ZM40,6.53l-4.4,7.33,4.32,7.2.08-.14.08.14,4.32-7.2ZM38.36,22,34,14.84l-8.4-.06L30,22ZM19.92,23,24,30.36,28.14,23,24,15.72Zm5.76,8.1,8.52.06,4.12-7.34L29.8,23.8Zm0,1.82L30,40.16l8.4.06L34,33Zm18.44-1L40,24.64,35.86,32,40,39.28ZM38.36,5.68,30,5.74l-4.32,7.2,8.4-.06Zm-18.44-1L24,12l4.11-7.32L24-2.64ZM9.7,5.68,14,12.88l8.4.06L18.1,5.74ZM9.7,22,18.1,22l4.32-7.21-8.4.06Zm0,1.82,4.12,7.34,8.52-.06L18.26,23.8ZM22.42,33,14,33,9.7,40.22l8.4-.06ZM4,32l4.11,7.32L12.2,32,8.09,24.64ZM-6.24,33l4.32,7.2,8.4.06L2.16,33Zm0,16.36,8.4-.06,4.32-7.2-8.4.06Zm18.44,1L8.09,43,4,50.32l4.11,7.32Zm10.22-1-4.32-7.2-8.4-.06L14,49.26ZM24,48.47l4.4-7.33-4.32-7.2-.08.14L24,33.94l-4.32,7.2Zm1.61.85,8.4-.06,4.32-7.2-8.4.06Zm18.44,1L40,43l-4.11,7.32L40,57.64Zm10.22-1L50,42.12l-8.4-.06,4.32,7.2ZM54.3,33l-8.4,0-4.32,7.21,8.4-.06Zm0-1.82L50.14,23.8l-8.52.06,4.12,7.34Z"/><path class="cls-2" d="M-8.17,33.94l-4.32,7.2,6,10-11.78-.08L-24,61.35-29.8,51.08l-8.57.06v0h-3.22v0l-8.57-.06-5.77,10.27-5.77-10.27-11.78.08,6-10-6-10,11.78.09,5.77-10.28.08.14,4.32-7.2-6-10,11.78.08L-40-6.35-34.2,3.92l8.57-.06v0h3.22v0l8.57.06L-8.09-6.35-2.32,3.92,9.46,3.84l-6,10,6,10L-2.32,23.8-8.09,34.08ZM-4,23l-4.11-7.32L-12.2,23l4.11,7.32Zm-18.44-1L-14,22l4.32-7.21-8.4.06ZM6.24,22l-4.32-7.2-8.4-.06L-2.16,22Zm0-16.36-8.4.06-4.32,7.2,8.4-.06Zm-18.44-1L-8.09,12-4,4.68-8.09-2.64Zm-10.22,1,4.32,7.2,8.4.06L-14,5.74ZM-24,6.53l-4.4,7.33,4.32,7.2.08-.14.08.14,4.32-7.2ZM-25.64,22-30,14.84l-8.4-.06L-34,22Zm-18.44,1L-40,30.36-35.86,23-40,15.72Zm5.76,8.1,8.52.06,4.12-7.34-8.52-.06Zm0,1.82,4.32,7.2,8.4.06L-30,33Zm18.44-1L-24,24.64-28.14,32-24,39.28ZM-25.64,5.68l-8.4.06-4.32,7.2,8.4-.06Zm-18.44-1L-40,12l4.11-7.32L-40-2.64Zm-10.22,1,4.32,7.2,8.4.06-4.32-7.2Zm0,16.36,8.4-.05,4.32-7.21-8.4.06Zm0,1.82,4.12,7.34,8.52-.06-4.12-7.34ZM-41.58,33-50,33l-4.32,7.21,8.4-.06ZM-60,32l4.11,7.32L-51.8,32l-4.11-7.32Zm-10.22,1,4.32,7.2,8.4.06L-61.84,33Zm0,16.36,8.4-.06,4.32-7.2-8.4.06Zm18.44,1L-55.91,43-60,50.32l4.11,7.32Zm10.22-1-4.32-7.2-8.4-.06,4.32,7.2Zm1.61-.85,4.4-7.33-4.32-7.2-.08.14-.08-.14-4.32,7.2Zm1.61.85,8.4-.06,4.32-7.2-8.4.06Zm18.44,1L-24,43l-4.11,7.32L-24,57.64Zm10.22-1L-14,42.12l-8.4-.06,4.32,7.2ZM-9.7,33l-8.4,0-4.32,7.21,8.4-.06Zm0-1.82-4.12-7.34-8.52.06,4.12,7.34Z"/><path class="cls-2" d="M119.83-21.06l-4.32,7.2,6,10-11.78-.08L104,6.35,98.2-3.92l-8.57.06v0H86.42v0l-8.57-.06L72.09,6.35,66.32-3.92l-11.78.08,6-10-6-10,11.78.09,5.77-10.28.08.14,4.32-7.2-6-10,11.78.08L88-61.35,93.8-51.08l8.57-.06v0h3.22v0l8.57.06,5.77-10.27,5.77,10.27,11.78-.08-6,10,6,10-11.78-.09-5.77,10.28ZM124-32l-4.11-7.32L115.8-32l4.11,7.32Zm-18.44-1,8.4,0,4.32-7.21-8.4.06Zm28.66,0-4.32-7.2-8.4-.06L125.84-33Zm0-16.36-8.4.06-4.32,7.2,8.4-.06Zm-18.44-1L119.91-43,124-50.32l-4.11-7.32Zm-10.22,1,4.32,7.2,8.4.06L114-49.26Zm-1.61.85-4.4,7.33,4.32,7.2.08-.14.08.14,4.32-7.2ZM102.36-33,98-40.16l-8.4-.06L94-33ZM83.92-32,88-24.64,92.14-32,88-39.28Zm5.76,8.1,8.52.06,4.12-7.34L93.8-31.2Zm0,1.82L94-14.84l8.4.06L98-22Zm18.44-1L104-30.36,99.86-23,104-15.72Zm-5.72-26.28-8.4.06-4.32,7.2,8.4-.06Zm-18.44-1L88-43l4.11-7.32L88-57.64Zm-10.22,1L78-42.12l8.4.06-4.32-7.2ZM73.7-33l8.4,0,4.32-7.21-8.4.06Zm0,1.82,4.12,7.34,8.52-.06L82.26-31.2ZM86.42-22,78-22,73.7-14.78l8.4-.06ZM68-23l4.11,7.32L76.2-23l-4.11-7.32ZM57.76-22l4.32,7.2,8.4.06L66.16-22Zm0,16.36,8.4-.06,4.32-7.2-8.4.06Zm18.44,1L72.09-12,68-4.68l4.11,7.32Zm10.22-1-4.32-7.2-8.4-.06L78-5.74ZM88-6.53l4.4-7.33-4.32-7.2-.08.14L88-21.06l-4.32,7.2Zm1.61.85L98-5.74l4.32-7.2-8.4.06Zm18.44,1L104-12,99.86-4.68,104,2.64Zm10.22-1L114-12.88l-8.4-.06,4.32,7.2Zm0-16.36-8.4.05-4.32,7.21,8.4-.06Zm0-1.82-4.12-7.34-8.52.06,4.12,7.34Z"/><path class="cls-2" d="M55.83-21.06l-4.32,7.2,6,10L45.74-3.92,40,6.35,34.2-3.92l-8.57.06v0H22.42v0l-8.57-.06L8.09,6.35,2.32-3.92l-11.78.08,6-10-6-10,11.78.09L8.09-34.08l.08.14,4.32-7.2-6-10,11.78.08L24-61.35,29.8-51.08l8.57-.06v0h3.22v0l8.57.06,5.77-10.27,5.77,10.27,11.78-.08-6,10,6,10L61.68-31.2,55.91-20.92ZM60-32l-4.11-7.32L51.8-32l4.11,7.32ZM41.58-33,50-33l4.32-7.21-8.4.06Zm28.66,0-4.32-7.2-8.4-.06L61.84-33Zm0-16.36-8.4.06-4.32,7.2,8.4-.06Zm-18.44-1L55.91-43,60-50.32l-4.11-7.32Zm-10.22,1,4.32,7.2,8.4.06L50-49.26ZM40-48.47l-4.4,7.33,4.32,7.2.08-.14.08.14,4.32-7.2ZM38.36-33,34-40.16l-8.4-.06L30-33ZM19.92-32,24-24.64,28.14-32,24-39.28Zm5.76,8.1,8.52.06,4.12-7.34L29.8-31.2Zm0,1.82L30-14.84l8.4.06L34-22Zm18.44-1L40-30.36,35.86-23,40-15.72ZM38.36-49.32l-8.4.06-4.32,7.2,8.4-.06Zm-18.44-1L24-43l4.11-7.32L24-57.64Zm-10.22,1L14-42.12l8.4.06-4.32-7.2ZM9.7-33l8.4,0,4.32-7.21-8.4.06Zm0,1.82,4.12,7.34,8.52-.06L18.26-31.2ZM22.42-22,14-22,9.7-14.78l8.4-.06ZM4-23l4.11,7.32L12.2-23,8.09-30.36ZM-6.24-22l4.32,7.2,8.4.06L2.16-22Zm0,16.36,8.4-.06,4.32-7.2-8.4.06Zm18.44,1L8.09-12,4-4.68,8.09,2.64Zm10.22-1-4.32-7.2-8.4-.06L14-5.74ZM24-6.53l4.4-7.33-4.32-7.2-.08.14L24-21.06l-4.32,7.2Zm1.61.85L34-5.74l4.32-7.2-8.4.06Zm18.44,1L40-12,35.86-4.68,40,2.64Zm10.22-1L50-12.88l-8.4-.06,4.32,7.2ZM54.3-22,45.9-22l-4.32,7.21,8.4-.06Zm0-1.82L50.14-31.2l-8.52.06,4.12,7.34Z"/><path class="cls-2" d="M-8.17-21.06l-4.32,7.2,6,10-11.78-.08L-24,6.35-29.8-3.92l-8.57.06v0h-3.22v0l-8.57-.06L-55.91,6.35-61.68-3.92l-11.78.08,6-10-6-10,11.78.09,5.77-10.28.08.14,4.32-7.2-6-10,11.78.08L-40-61.35l5.77,10.27,8.57-.06v0h3.22v0l8.57.06,5.77-10.27,5.77,10.27,11.78-.08-6,10,6,10L-2.32-31.2-8.09-20.92ZM-4-32l-4.11-7.32L-12.2-32l4.11,7.32Zm-18.44-1,8.4,0,4.32-7.21-8.4.06ZM6.24-33l-4.32-7.2-8.4-.06L-2.16-33Zm0-16.36-8.4.06-4.32,7.2,8.4-.06Zm-18.44-1L-8.09-43-4-50.32l-4.11-7.32Zm-10.22,1,4.32,7.2,8.4.06L-14-49.26Zm-1.61.85-4.4,7.33,4.32,7.2.08-.14.08.14,4.32-7.2ZM-25.64-33-30-40.16l-8.4-.06L-34-33Zm-18.44,1L-40-24.64-35.86-32-40-39.28Zm5.76,8.1,8.52.06,4.12-7.34-8.52-.06Zm0,1.82,4.32,7.2,8.4.06L-30-22Zm18.44-1L-24-30.36-28.14-23-24-15.72Zm-5.72-26.28-8.4.06-4.32,7.2,8.4-.06Zm-18.44-1L-40-43l4.11-7.32L-40-57.64Zm-10.22,1,4.32,7.2,8.4.06-4.32-7.2Zm0,16.36,8.4,0,4.32-7.21-8.4.06Zm0,1.82,4.12,7.34,8.52-.06-4.12-7.34ZM-41.58-22-50-22l-4.32,7.21,8.4-.06ZM-60-23l4.11,7.32L-51.8-23l-4.11-7.32Zm-10.22,1,4.32,7.2,8.4.06L-61.84-22Zm0,16.36,8.4-.06,4.32-7.2-8.4.06Zm18.44,1L-55.91-12-60-4.68l4.11,7.32Zm10.22-1-4.32-7.2-8.4-.06L-50-5.74ZM-40-6.53l4.4-7.33-4.32-7.2-.08.14-.08-.14-4.32,7.2Zm1.61.85,8.4-.06,4.32-7.2-8.4.06Zm18.44,1L-24-12l-4.11,7.32L-24,2.64Zm10.22-1L-14-12.88l-8.4-.06,4.32,7.2ZM-9.7-22l-8.4.05-4.32,7.21,8.4-.06Zm0-1.82-4.12-7.34-8.52.06,4.12,7.34Z"/></pattern><pattern id="New_Pattern_3" data-name="New Pattern 3" width="27" height="27" patternTransform="translate(14 11)" patternUnits="userSpaceOnUse" viewBox="0 0 27 27"><rect class="cls-1" width="27" height="27"/><path class="cls-3" d="M54.66,39.59v1.82h0A14.18,14.18,0,0,1,41.41,54.62v0H39.59v0A14.18,14.18,0,0,1,26.38,41.41h0V39.59h0A14.18,14.18,0,0,1,39.59,26.38v0h1.82v0A14.18,14.18,0,0,1,54.62,39.59ZM41.45,28.19A12.35,12.35,0,0,0,52.81,39.55,12.37,12.37,0,0,0,41.45,28.19Zm-1,4a14.19,14.19,0,0,1-8.3,8.3,14.22,14.22,0,0,1,8.3,8.3,14.19,14.19,0,0,1,8.3-8.3A14.17,14.17,0,0,1,40.5,32.2ZM28.19,39.55A12.35,12.35,0,0,0,39.55,28.19,12.37,12.37,0,0,0,28.19,39.55ZM39.55,52.81A12.35,12.35,0,0,0,28.19,41.45,12.37,12.37,0,0,0,39.55,52.81ZM52.81,41.45A12.35,12.35,0,0,0,41.45,52.81,12.37,12.37,0,0,0,52.81,41.45Z"/><path class="cls-3" d="M27.66,39.59v1.82h0A14.18,14.18,0,0,1,14.41,54.62v0H12.59v0A14.18,14.18,0,0,1-.62,41.41h0V39.59h0A14.18,14.18,0,0,1,12.59,26.38v0h1.82v0A14.18,14.18,0,0,1,27.62,39.59ZM14.45,28.19A12.35,12.35,0,0,0,25.81,39.55,12.37,12.37,0,0,0,14.45,28.19Zm-.95,4a14.19,14.19,0,0,1-8.3,8.3,14.22,14.22,0,0,1,8.3,8.3,14.19,14.19,0,0,1,8.3-8.3A14.17,14.17,0,0,1,13.5,32.2ZM1.19,39.55A12.35,12.35,0,0,0,12.55,28.19,12.37,12.37,0,0,0,1.19,39.55ZM12.55,52.81A12.35,12.35,0,0,0,1.19,41.45,12.37,12.37,0,0,0,12.55,52.81ZM25.81,41.45A12.35,12.35,0,0,0,14.45,52.81,12.37,12.37,0,0,0,25.81,41.45Z"/><path class="cls-3" d="M.66,39.59v1.82h0A14.18,14.18,0,0,1-12.59,54.62v0h-1.82v0A14.18,14.18,0,0,1-27.62,41.41h0V39.59h0A14.18,14.18,0,0,1-14.41,26.38v0h1.82v0A14.18,14.18,0,0,1,.62,39.59Zm-13.21-11.4A12.35,12.35,0,0,0-1.19,39.55,12.37,12.37,0,0,0-12.55,28.19Zm-.95,4a14.19,14.19,0,0,1-8.3,8.3,14.22,14.22,0,0,1,8.3,8.3,14.19,14.19,0,0,1,8.3-8.3A14.17,14.17,0,0,1-13.5,32.2Zm-12.31,7.35A12.35,12.35,0,0,0-14.45,28.19,12.37,12.37,0,0,0-25.81,39.55Zm11.36,13.26A12.35,12.35,0,0,0-25.81,41.45,12.37,12.37,0,0,0-14.45,52.81ZM-1.19,41.45A12.35,12.35,0,0,0-12.55,52.81,12.37,12.37,0,0,0-1.19,41.45Z"/><path class="cls-3" d="M54.66,12.59v1.82h0A14.18,14.18,0,0,1,41.41,27.62v0H39.59v0A14.18,14.18,0,0,1,26.38,14.41h0V12.59h0A14.18,14.18,0,0,1,39.59-.62v0h1.82v0A14.18,14.18,0,0,1,54.62,12.59ZM41.45,1.19A12.35,12.35,0,0,0,52.81,12.55,12.37,12.37,0,0,0,41.45,1.19Zm-1,4a14.19,14.19,0,0,1-8.3,8.3,14.22,14.22,0,0,1,8.3,8.3,14.19,14.19,0,0,1,8.3-8.3A14.17,14.17,0,0,1,40.5,5.2ZM28.19,12.55A12.35,12.35,0,0,0,39.55,1.19,12.37,12.37,0,0,0,28.19,12.55ZM39.55,25.81A12.35,12.35,0,0,0,28.19,14.45,12.37,12.37,0,0,0,39.55,25.81ZM52.81,14.45A12.35,12.35,0,0,0,41.45,25.81,12.37,12.37,0,0,0,52.81,14.45Z"/><path class="cls-3" d="M27.66,12.59v1.82h0A14.18,14.18,0,0,1,14.41,27.62v0H12.59v0A14.18,14.18,0,0,1-.62,14.41h0V12.59h0A14.18,14.18,0,0,1,12.59-.62v0h1.82v0A14.18,14.18,0,0,1,27.62,12.59ZM14.45,1.19A12.35,12.35,0,0,0,25.81,12.55,12.37,12.37,0,0,0,14.45,1.19Zm-.95,4a14.19,14.19,0,0,1-8.3,8.3,14.22,14.22,0,0,1,8.3,8.3,14.19,14.19,0,0,1,8.3-8.3A14.17,14.17,0,0,1,13.5,5.2ZM1.19,12.55A12.35,12.35,0,0,0,12.55,1.19,12.37,12.37,0,0,0,1.19,12.55ZM12.55,25.81A12.35,12.35,0,0,0,1.19,14.45,12.37,12.37,0,0,0,12.55,25.81ZM25.81,14.45A12.35,12.35,0,0,0,14.45,25.81,12.37,12.37,0,0,0,25.81,14.45Z"/><path class="cls-3" d="M.66,12.59v1.82h0A14.18,14.18,0,0,1-12.59,27.62v0h-1.82v0A14.18,14.18,0,0,1-27.62,14.41h0V12.59h0A14.18,14.18,0,0,1-14.41-.62v0h1.82v0A14.18,14.18,0,0,1,.62,12.59ZM-12.55,1.19A12.35,12.35,0,0,0-1.19,12.55,12.37,12.37,0,0,0-12.55,1.19Zm-.95,4a14.19,14.19,0,0,1-8.3,8.3,14.22,14.22,0,0,1,8.3,8.3,14.19,14.19,0,0,1,8.3-8.3A14.17,14.17,0,0,1-13.5,5.2Zm-12.31,7.35A12.35,12.35,0,0,0-14.45,1.19,12.37,12.37,0,0,0-25.81,12.55Zm11.36,13.26A12.35,12.35,0,0,0-25.81,14.45,12.37,12.37,0,0,0-14.45,25.81ZM-1.19,14.45A12.35,12.35,0,0,0-12.55,25.81,12.37,12.37,0,0,0-1.19,14.45Z"/><path class="cls-3" d="M54.66-14.41v1.82h0A14.18,14.18,0,0,1,41.41.62v0H39.59v0A14.18,14.18,0,0,1,26.38-12.59h0v-1.82h0A14.18,14.18,0,0,1,39.59-27.62v0h1.82v0A14.18,14.18,0,0,1,54.62-14.41ZM41.45-25.81A12.35,12.35,0,0,0,52.81-14.45,12.37,12.37,0,0,0,41.45-25.81Zm-1,4a14.19,14.19,0,0,1-8.3,8.3,14.22,14.22,0,0,1,8.3,8.3,14.19,14.19,0,0,1,8.3-8.3A14.17,14.17,0,0,1,40.5-21.8ZM28.19-14.45A12.35,12.35,0,0,0,39.55-25.81,12.37,12.37,0,0,0,28.19-14.45ZM39.55-1.19A12.35,12.35,0,0,0,28.19-12.55,12.37,12.37,0,0,0,39.55-1.19ZM52.81-12.55A12.35,12.35,0,0,0,41.45-1.19,12.37,12.37,0,0,0,52.81-12.55Z"/><path class="cls-3" d="M27.66-14.41v1.82h0A14.18,14.18,0,0,1,14.41.62v0H12.59v0A14.18,14.18,0,0,1-.62-12.59h0v-1.82h0A14.18,14.18,0,0,1,12.59-27.62v0h1.82v0A14.18,14.18,0,0,1,27.62-14.41ZM14.45-25.81A12.35,12.35,0,0,0,25.81-14.45,12.37,12.37,0,0,0,14.45-25.81Zm-.95,4a14.19,14.19,0,0,1-8.3,8.3,14.22,14.22,0,0,1,8.3,8.3,14.19,14.19,0,0,1,8.3-8.3A14.17,14.17,0,0,1,13.5-21.8ZM1.19-14.45A12.35,12.35,0,0,0,12.55-25.81,12.37,12.37,0,0,0,1.19-14.45ZM12.55-1.19A12.35,12.35,0,0,0,1.19-12.55,12.37,12.37,0,0,0,12.55-1.19ZM25.81-12.55A12.35,12.35,0,0,0,14.45-1.19,12.37,12.37,0,0,0,25.81-12.55Z"/><path class="cls-3" d="M.66-14.41v1.82h0A14.18,14.18,0,0,1-12.59.62v0h-1.82v0A14.18,14.18,0,0,1-27.62-12.59h0v-1.82h0A14.18,14.18,0,0,1-14.41-27.62v0h1.82v0A14.18,14.18,0,0,1,.62-14.41Zm-13.21-11.4A12.35,12.35,0,0,0-1.19-14.45,12.37,12.37,0,0,0-12.55-25.81Zm-.95,4a14.19,14.19,0,0,1-8.3,8.3,14.22,14.22,0,0,1,8.3,8.3,14.19,14.19,0,0,1,8.3-8.3A14.17,14.17,0,0,1-13.5-21.8Zm-12.31,7.35A12.35,12.35,0,0,0-14.45-25.81,12.37,12.37,0,0,0-25.81-14.45ZM-14.45-1.19A12.35,12.35,0,0,0-25.81-12.55,12.37,12.37,0,0,0-14.45-1.19ZM-1.19-12.55A12.35,12.35,0,0,0-12.55-1.19,12.37,12.37,0,0,0-1.19-12.55Z"/></pattern></defs><g class="cls-4"><g id="Layer_1" data-name="Layer 1"><rect class="cls-5" x="-40" y="-25" width="2004" height="1137"/><rect class="cls-6" x="934.19" y="100" width="51.61" height="164.08" rx="15.48"/><rect class="cls-7" x="672.97" y="252.03" width="574.05" height="571.79" rx="21.32"/><path class="cls-8" d="M1247,755.34a21.32,21.32,0,0,1-21.33,21.32L694.3,796.09A21.33,21.33,0,0,1,673,774.76V245.62a21.33,21.33,0,0,1,21.33-21.33h531.4A21.33,21.33,0,0,1,1247,245.62Z"/><rect class="cls-6" x="860.16" y="191.02" width="199.68" height="33.27" rx="9.98"/><rect class="cls-9" x="860.16" y="182.04" width="199.68" height="33.27" rx="9.98"/><rect class="cls-10" x="764.41" y="850.86" width="398.01" height="29.22"/><polygon class="cls-10" points="1225.1 1145.8 1169.38 1145.8 1099.72 864.16 1155.45 864.16 1225.1 1145.8"/><polygon class="cls-6" points="1231.29 1145.8 1184.86 1145.8 1115.2 864.16 1161.63 864.16 1231.29 1145.8"/><polygon class="cls-10" points="694.9 1145.8 750.62 1145.8 820.27 864.16 764.55 864.16 694.9 1145.8"/><polygon class="cls-6" points="688.71 1145.8 735.14 1145.8 804.79 864.16 758.37 864.16 688.71 1145.8"/><rect class="cls-10" x="934.19" y="864.32" width="51.61" height="281.47"/><rect class="cls-6" x="625.01" y="812.66" width="669.98" height="52.48" rx="14.66"/><rect class="cls-9" x="625.01" y="798" width="669.98" height="52.48" rx="14.66"/><path class="cls-11" d="M1863,646.26s-16.69,12.63,7.41,45.88C1870.4,692.14,1882.89,656.58,1863,646.26Z"/><path class="cls-12" d="M1862.74,642.5c2.23-.31,3.57-3.64,3-7.37l-1.59-10.71a7.55,7.55,0,0,0-7.76.9l1.43,10.92C1858.31,640,1860.52,642.81,1862.74,642.5Z"/><path class="cls-10" d="M1864.16,624.42l-24-160.75a2.39,2.39,0,1,0-4.73.66l21,161A7.55,7.55,0,0,1,1864.16,624.42Z"/><path class="cls-13" d="M1856.24,640.31a6.14,6.14,0,0,1,5.23-6.93h0a6.14,6.14,0,0,1,6.93,5.23l.85,6.09a6.14,6.14,0,0,1-5.23,6.93h0a6.15,6.15,0,0,1-6.93-5.24Z"/><path class="cls-11" d="M1819.08,505.35s15.34-11.68-6.94-42.24C1812.14,463.11,1800.73,495.89,1819.08,505.35Z"/><path class="cls-12" d="M1819.32,508.81c-2,.29-3.28,3.36-2.76,6.79l1.5,9.86a6.94,6.94,0,0,0,7.14-.84l-1.33-10.06C1823.41,511.12,1821.37,508.51,1819.32,508.81Z"/><path class="cls-9" d="M1818.06,525.46l22.52,148a2.2,2.2,0,0,0,4.36-.62L1825.2,524.62A6.94,6.94,0,0,1,1818.06,525.46Z"/><path class="cls-13" d="M1825.32,510.81a5.65,5.65,0,0,1-4.8,6.39h0a5.66,5.66,0,0,1-6.4-4.8l-.8-5.6a5.65,5.65,0,0,1,4.8-6.39h0a5.66,5.66,0,0,1,6.4,4.8Z"/><path class="cls-11" d="M1819.37,644.25s-20.69,7.2-7.41,48.08C1812,692.33,1835.86,660.94,1819.37,644.25Z"/><path class="cls-12" d="M1820.33,640.43c2.32.41,4.73-2.47,5.38-6.37l1.86-11.18a7.89,7.89,0,0,0-8-1.6l-2.1,11.33C1816.73,636.49,1818,640,1820.33,640.43Z"/><path class="cls-9" d="M1827.57,622.88l27.9-167.8a2.5,2.5,0,1,0-4.92-.86l-31,167.06A7.89,7.89,0,0,1,1827.57,622.88Z"/><path class="cls-13" d="M1814.56,636.15a6.43,6.43,0,0,1,7.44-5.21h0a6.43,6.43,0,0,1,5.22,7.44l-1.11,6.33a6.44,6.44,0,0,1-7.45,5.22h0a6.43,6.43,0,0,1-5.21-7.45Z"/><path class="cls-12" d="M1868.87,553.14a1.7,1.7,0,0,1-1.69,1.7h-60.3a1.7,1.7,0,0,1-1.7-1.7h0a1.7,1.7,0,0,1,1.7-1.69h60.3a1.69,1.69,0,0,1,1.69,1.69Z"/><path class="cls-12" d="M1868.87,549.73a1.7,1.7,0,0,1-1.69,1.7h-60.3a1.7,1.7,0,0,1-1.7-1.7h0a1.7,1.7,0,0,1,1.7-1.69h60.3a1.69,1.69,0,0,1,1.69,1.69Z"/><path class="cls-12" d="M1868.87,546.32a1.69,1.69,0,0,1-1.69,1.69h-60.3a1.69,1.69,0,0,1-1.7-1.69h0a1.69,1.69,0,0,1,1.7-1.69h60.3a1.69,1.69,0,0,1,1.69,1.69Z"/><path class="cls-12" d="M1876.23,699.31a4,4,0,0,1-4,4h-70.36a4,4,0,0,1-4-4h0a4,4,0,0,1,4-4h70.36a4,4,0,0,1,4,4Z"/><rect class="cls-13" x="1789.31" y="554.02" width="95.44" height="145.54" rx="9.46"/><path class="cls-8" d="M1802.56,564.8a4.42,4.42,0,0,1-4.41,4.42h0a4.42,4.42,0,0,1-4.42-4.42v-.45a4.42,4.42,0,0,1,4.42-4.42h0a4.42,4.42,0,0,1,4.41,4.42Z"/><path class="cls-8" d="M1801.93,686.06a3.79,3.79,0,0,1-3.78,3.79h0a3.79,3.79,0,0,1-3.79-3.79V576a3.79,3.79,0,0,1,3.79-3.79h0a3.79,3.79,0,0,1,3.78,3.79Z"/><polygon class="cls-1" points="1830.94 559.93 1829.9 559.93 1830.34 563.17 1830.94 559.93"/><path class="cls-12" d="M1842.77,687.49a2.2,2.2,0,0,0,4.36-.62l-13.61-99.78-3.18,19.09Z"/><polygon class="cls-12" points="1829.9 559.93 1823.31 559.93 1826.74 582.53 1830.34 563.17 1829.9 559.93"/><path class="cls-12" d="M1867.69,649.7a6.15,6.15,0,0,0,1.56-5l-.85-6.09a6.11,6.11,0,0,0-2.77-4.31l-1.47-9.88-9.62-64.49h-6.65l8.51,65.39,1.32,10.09a6.07,6.07,0,0,0-1.48,4.9l.85,6.08a6.12,6.12,0,0,0,2.56,4.18c-3.21,6.13-5.49,19.17,10.75,41.57C1870.4,692.14,1880.69,662.82,1867.69,649.7Z"/><path class="cls-12" d="M1830.34,563.17l-3.6,19.36-7.18,38.75-2,10.46a6.44,6.44,0,0,0-3,4.41l-1.11,6.33a6.36,6.36,0,0,0,1.21,5c-5.18,5.07-11.65,17.31-2.7,44.86,0,0,19.7-25.88,11-43.14a6.42,6.42,0,0,0,3.17-4.48l1.11-6.33a6.4,6.4,0,0,0-1.37-5.19l1.72-10.31,2.77-16.7,3.18-19.09,4.52-27.16h-7.1Z"/><path class="cls-6" d="M1745.68,728.69a8.78,8.78,0,0,1-8.78-8.78v7.9a8.78,8.78,0,0,0,8.78,8.78H1920v-7.9Z"/><path class="cls-9" d="M1745.68,728.69H1920V699.42H1745.68a8.77,8.77,0,0,0-8.78,8.77v11.72A8.78,8.78,0,0,0,1745.68,728.69Z"/><rect class="cls-6" x="1753.85" y="735.43" width="166.15" height="347.52"/><rect class="cls-10" x="1753.85" y="735.43" width="166.15" height="16.09"/><path class="cls-10" d="M1787.9,884.07a8.78,8.78,0,0,1-8.78-8.78v7.9a8.78,8.78,0,0,0,8.78,8.78H1920v-7.9Z"/><path class="cls-9" d="M1787.9,884.07H1920V778H1787.9a8.78,8.78,0,0,0-8.78,8.78v88.53A8.78,8.78,0,0,0,1787.9,884.07Z"/><path class="cls-10" d="M1787.9,1037.66a8.78,8.78,0,0,1-8.78-8.78v7.9a8.78,8.78,0,0,0,8.78,8.78H1920v-7.9Z"/><path class="cls-9" d="M1787.9,1037.66H1920V931.57H1787.9a8.78,8.78,0,0,0-8.78,8.78v88.53A8.78,8.78,0,0,0,1787.9,1037.66Z"/><path class="cls-14" d="M31.09,607.55q-2,84.48-3.92,169c7.54-17.83,33-17.24,39.71.91q2-84.48,3.91-169C69.57,590.91,32.87,586.53,31.09,607.55Z"/><path class="cls-15" d="M68,729.2l2.79-120.68c-.28,12.28-24.42,17.71-28.36-.66L39.64,728.55C44.43,741.52,62.62,741.94,68,729.2Z"/><path class="cls-16" d="M69.34,878.85c1.46-63.13,4.58-198,6-261.12-8.45,20-37,19.32-44.51-1-1.46,63.13-4.58,198-6,261.12C32.35,898.17,60.89,898.84,69.34,878.85Z"/><path class="cls-14" d="M100.31,729.09Q84.24,812.06,68.19,895c10.42-16.31,35.42-11.47,39,7.55q16.05-83,32.11-165.92C141,719.11,105.58,708.65,100.31,729.09Z"/><path class="cls-15" d="M116.36,855.2q11.46-59.26,22.94-118.52c-2.34,12.06-27.05,13.37-27.86-5.39Q100,790.54,88.5,849.8C91.05,863.39,108.92,866.85,116.36,855.2Z"/><path class="cls-16" d="M92.64,1003l49.64-256.43c-11.67,18.29-39.7,12.86-43.71-8.46L48.93,994.5C52.94,1015.82,81,1021.25,92.64,1003Z"/><path class="cls-17" d="M0,654.37v169c7.13-18,32.6-18,39.72,0v-169C38.09,636.84,1.29,633.31,0,654.37Z"/><path class="cls-18" d="M39.72,775.14V654.42c0,12.28-24,18.27-28.37,0V775.14C16.44,788,34.63,788,39.72,775.14Z"/><path class="cls-19" d="M44.52,924.71V663.52c-8,20.17-36.53,20.17-44.52,0V924.71C8,944.88,36.54,944.88,44.52,924.71Z"/><path class="cls-17" d="M77.38,652.87Q64.22,736.35,51.05,819.81c9.84-16.66,35-12.7,39.24,6.19q13.15-83.47,26.33-166.94C117.74,641.48,81.94,632.26,77.38,652.87Z"/><path class="cls-18" d="M97.8,778.35,116.61,659.1c-1.91,12.14-26.56,14.31-28-4.42L69.78,773.93C72.8,787.42,90.77,790.25,97.8,778.35Z"/><path class="cls-19" d="M79.24,926.85c9.84-62.38,30.86-195.63,40.69-258-11,18.69-39.23,14.24-44-6.93l-40.7,258C40,941.08,68.21,945.53,79.24,926.85Z"/><path class="cls-6" d="M140.77,861.12a5.36,5.36,0,0,0,5.36-5.36v4.82a5.36,5.36,0,0,1-5.36,5.37H0v-4.83Z"/><path class="cls-9" d="M140.77,861.12H0V843.23H140.77a5.36,5.36,0,0,1,5.36,5.37v7.16A5.36,5.36,0,0,1,140.77,861.12Z"/><rect class="cls-6" y="864.59" width="132.6" height="218.36"/><rect class="cls-17" x="95.17" y="82.13" width="199.78" height="95.28" rx="7.68"/><rect class="cls-19" x="102.86" y="82.13" width="199.77" height="95.28" rx="7.68"/><path class="cls-17" d="M117.12,131.37a1.6,1.6,0,0,1-1.6-1.6h0a1.6,1.6,0,0,1,1.6-1.6H288.37a1.6,1.6,0,0,1,1.6,1.6h0a1.6,1.6,0,0,1-1.6,1.6Z"/><path class="cls-20" d="M274.21,118.37A13.83,13.83,0,1,1,288,104.54,13.83,13.83,0,0,1,274.21,118.37Z"/><path class="cls-21" d="M284.22,104.54a13.83,13.83,0,0,1-11.92,13.69,14.93,14.93,0,0,0,1.91.14,13.83,13.83,0,0,0,0-27.66,13.31,13.31,0,0,0-1.91.15A13.82,13.82,0,0,1,284.22,104.54Z"/><path class="cls-13" d="M226.57,118.37a13.83,13.83,0,1,1,13.83-13.83A13.83,13.83,0,0,1,226.57,118.37Z"/><path class="cls-21" d="M236.58,104.54a13.83,13.83,0,0,1-11.92,13.69,15.06,15.06,0,0,0,1.91.14,13.83,13.83,0,1,0,0-27.66,13.42,13.42,0,0,0-1.91.15A13.82,13.82,0,0,1,236.58,104.54Z"/><path class="cls-22" d="M178.93,118.37a13.83,13.83,0,1,1,13.83-13.83A13.83,13.83,0,0,1,178.93,118.37Z"/><path class="cls-21" d="M188.94,104.54A13.83,13.83,0,0,1,177,118.23a15.06,15.06,0,0,0,1.91.14,13.83,13.83,0,0,0,0-27.66,13.42,13.42,0,0,0-1.91.15A13.82,13.82,0,0,1,188.94,104.54Z"/><path class="cls-23" d="M131.29,118.37a13.83,13.83,0,1,1,13.83-13.83A13.83,13.83,0,0,1,131.29,118.37Z"/><path class="cls-21" d="M141.3,104.54a13.83,13.83,0,0,1-11.92,13.69,15.06,15.06,0,0,0,1.91.14,13.83,13.83,0,1,0,0-27.66,13.42,13.42,0,0,0-1.91.15A13.81,13.81,0,0,1,141.3,104.54Z"/><path class="cls-24" d="M274.21,168.83A13.83,13.83,0,1,1,288,155,13.83,13.83,0,0,1,274.21,168.83Z"/><path class="cls-21" d="M284.22,155a13.82,13.82,0,0,1-11.92,13.68,13.31,13.31,0,0,0,1.91.15,13.83,13.83,0,0,0,0-27.66,13.31,13.31,0,0,0-1.91.15A13.82,13.82,0,0,1,284.22,155Z"/><path class="cls-25" d="M226.57,168.83A13.83,13.83,0,1,1,240.4,155,13.83,13.83,0,0,1,226.57,168.83Z"/><path class="cls-21" d="M236.58,155a13.82,13.82,0,0,1-11.92,13.68,13.42,13.42,0,0,0,1.91.15,13.83,13.83,0,0,0,0-27.66,13.42,13.42,0,0,0-1.91.15A13.82,13.82,0,0,1,236.58,155Z"/><path class="cls-26" d="M178.93,168.83A13.83,13.83,0,1,1,192.76,155,13.83,13.83,0,0,1,178.93,168.83Z"/><path class="cls-21" d="M188.94,155A13.82,13.82,0,0,1,177,168.68a13.42,13.42,0,0,0,1.91.15,13.83,13.83,0,0,0,0-27.66,13.42,13.42,0,0,0-1.91.15A13.82,13.82,0,0,1,188.94,155Z"/><path class="cls-11" d="M131.29,168.83A13.83,13.83,0,1,1,145.12,155,13.83,13.83,0,0,1,131.29,168.83Z"/><path class="cls-21" d="M141.3,155a13.81,13.81,0,0,1-11.92,13.68,13.42,13.42,0,0,0,1.91.15,13.83,13.83,0,0,0,0-27.66,13.42,13.42,0,0,0-1.91.15A13.81,13.81,0,0,1,141.3,155Z"/><path class="cls-23" d="M81.17,80.8l-110,88.89a4.8,4.8,0,0,0-.89,6.67l1.53,1.93a4.77,4.77,0,0,0,6.67.68L90.33,92.42Z"/><path class="cls-27" d="M102.39,83.12,93,71.21,81.17,80.8l9.16,11.62Z"/><path class="cls-11" d="M102.39,83.12s15.8-2.6,28.93-10c0,0,2.2-6.15-6.07-16.63l-7.53,4.82,6.28-6.4-1.86-2.37-6.57,6L120.9,51s-4.76-4.15-10.52-4.18A95.31,95.31,0,0,0,93,71.21Z"/><path class="cls-28" d="M73,82.52s16.75,6,29.21-26.59C102.17,55.93,71.06,63.57,73,82.52Z"/><path class="cls-27" d="M70.4,84.45c-1.25-1.44-4.25-.85-6.64,1.28l-6.88,6.11a6.4,6.4,0,0,0,4.24,5.1l7.11-6.08C70.67,88.77,71.66,85.88,70.4,84.45Z"/><path class="cls-10" d="M56.88,91.84-46.35,183.62a2,2,0,0,0-.2,2.86,2,2,0,0,0,2.87.2L61.12,96.94A6.4,6.4,0,0,1,56.88,91.84Z"/><path class="cls-27" d="M71.87,90.09a5.21,5.21,0,0,1-7.36-.5h0a5.21,5.21,0,0,1,.5-7.36l3.93-3.43a5.21,5.21,0,0,1,7.36.5h0a5.21,5.21,0,0,1-.5,7.36Z"/><path class="cls-10" d="M43.3,185.93c6-2.8,14.6-16.57,14.6-16.57s106.62,24.94,116,2.21S58.72,156.68,58.72,156.68s-6.83-17.42-12.51-19.91a26.36,26.36,0,0,0-8.67-1.49c-1.14,17.19-2.63,34.36-3.82,51.4C37.19,187.07,40.85,187.07,43.3,185.93Zm115-13.62a2.71,2.71,0,1,1,.35-5.41l4.85.31a2.72,2.72,0,1,1-.35,5.42Z"/><path class="cls-11" d="M21.44,184s-16.91,1.6-23.9.39-16.73-1.87-16.73-1.87,1.61-16.17,1.77-27.3l24.8,1.6-24.5-6.36.36-5.55,8.66-1L-17,141.71l.64-9.93s13.78.08,23.24,1.51c0,0-9.28-3.56-16.26-2.53,0,0,20.86-3.93,33.89,5.27Z"/><path class="cls-23" d="M37.54,135.28a87.13,87.13,0,0,0-10.35.26L24,184.68a62.14,62.14,0,0,0,9.71,2C34.91,169.64,36.4,152.47,37.54,135.28Z"/><path class="cls-23" d="M22.78,186a2.33,2.33,0,0,1-2.18-2.49l3-46.69a2.34,2.34,0,0,1,2.48-2.19h0a2.34,2.34,0,0,1,2.19,2.49l-3,46.69A2.35,2.35,0,0,1,22.78,186Z"/><rect class="cls-6" x="-64.49" y="182.34" width="394.6" height="26.63" rx="7.44"/><rect class="cls-9" x="-64.49" y="174.9" width="394.6" height="26.63" rx="7.44"/><rect class="cls-29" x="245.71" y="361" width="277.38" height="353"/><rect class="cls-30" x="245.71" y="361" width="277.38" height="210.72"/><rect class="cls-31" x="245.71" y="361" width="277.38" height="210.72"/><path class="cls-32" d="M245.7,478.21s50.17,27.6,73.51,23.52,37.33-41.71,79-45.21,61.54,45.79,124.83,23.92V649.9H245.7Z"/><path class="cls-33" d="M245.7,555.44s0-26.69,37.63-51.63,47.25-10.06,64.31,6.56,46.38-27.56,67.82-31.5,19.68,1.32,27.56,0,23.19,28,37.63,28.44,33.68,23.19,42.43,21.88V635.94H245.7Z"/><path class="cls-34" d="M245.7,530.14c21.44-2.62,17.38,38.38,61.25,38.5,47.41.14,67.74-85.25,120.32-64.75,50.81,19.81,88.33,51.25,95.81,24.94v70H245.7Z"/><path class="cls-32" d="M245.7,639.4V556.71s21.44-22.31,44.63-25.81,40.69,0,53.81,15.31,27.13,32.38,40.25,33.25,21.22,1.31,19.47,3.94,23.85-.66,32.38-4.16,19.69-2.62,42.22-8.53,44.62-14,44.62-14v97.13H245.7Z"/><path class="cls-35" d="M245.7,639.4V556.71s21.44-22.31,44.63-25.81,40.69,0,53.81,15.31,27.13,32.38,40.25,33.25,21.22,1.31,19.47,3.94,23.85-.66,32.38-4.16,19.69-2.62,42.22-8.53,44.62-14,44.62-14v97.13H245.7Z"/><path class="cls-33" d="M318.69,399A23.73,23.73,0,0,1,307.86,419l0,0a23.78,23.78,0,1,1-14.46-43.69c.51,0,1-.05,1.53-.05A23.78,23.78,0,0,1,318.69,399Z"/><path class="cls-8" d="M294.91,408.35s-22.85-1.22-38.57-4a74.4,74.4,0,0,1-10.63,1.69V390.71c11.69-.76,21.6,2.88,29.28,12C275,402.71,280.61,402.84,294.91,408.35Z"/><path class="cls-8" d="M523.08,399.94c-16.78-1.49-31.66-6.52-40.57-22.7-13.25-.56-24.76-3.87-34.06-10.65A42.76,42.76,0,0,1,418.29,361H523.08Z"/><path class="cls-36" d="M245.7,664.49s6.57,3.5,19.69,0,15.75-3.06,20.56-3.06,8.32,1.28,28.44,0,23.19-4.35,35.88-3,27.56,1.31,37.19,1.75,17.5-3.7,26.25-2.07,10.93-3.38,20.56,0,22.75,10,36.31,8,22.75-2,27.13-2.43,25.37-2,25.37-2v-42.2s-27.12-2.62-37.18-3.5-11.38.44-29.75-1.31-34.13-6.56-47.69-8.31-51.19-.44-67.38.87S300,608.49,286,609.37s-40.25,3.06-40.25,3.06Z"/><path class="cls-12" d="M1912,284.34a4.61,4.61,0,0,1,.77,6.48h0a4.63,4.63,0,0,1-6.49.77l-3.76-3a4.62,4.62,0,0,1-.77-6.48h0a4.63,4.63,0,0,1,6.49-.77Z"/><path class="cls-13" d="M1970.09,307.56a3.16,3.16,0,0,1-4.44.53l-9.7-7.64a15.1,15.1,0,0,1-5.1-13.17l3.91-23.72a8.75,8.75,0,0,0-2.77-7.17l-8-6.27a3.16,3.16,0,0,0-4.44.53L1913.31,284a3.16,3.16,0,0,1-5-3.92l26.27-33.34a9.52,9.52,0,0,1,13.34-1.58l8,6.27a15.08,15.08,0,0,1,5.11,13.17l-3.92,23.72a8.72,8.72,0,0,0,2.78,7.16l9.69,7.65A3.16,3.16,0,0,1,1970.09,307.56Z"/><path class="cls-27" d="M1944.26,255.51a7.07,7.07,0,0,1,1.18,9.92l-22.07,28a7.07,7.07,0,0,1-9.93,1.18l-15.54-12.25a7.07,7.07,0,0,1-1.17-9.93l22.06-28a7.07,7.07,0,0,1,9.93-1.17Z"/><path class="cls-12" d="M1935.61,304.41a2.86,2.86,0,0,1-2.87,2.87h-43.57a2.87,2.87,0,0,1-2.87-2.87h0a2.88,2.88,0,0,1,2.87-2.88h43.57a2.87,2.87,0,0,1,2.87,2.88Z"/><path class="cls-12" d="M1939,352a2.88,2.88,0,0,1-2.88,2.88h-50.33a2.88,2.88,0,0,1-2.88-2.88h0a2.88,2.88,0,0,1,2.88-2.87h50.33A2.88,2.88,0,0,1,1939,352Z"/><rect class="cls-13" x="1876.82" y="304.98" width="68.27" height="47.23" rx="6.77"/><path class="cls-27" d="M1941,296.35a5.18,5.18,0,0,1-5.18,5.18h-49.79a5.18,5.18,0,0,1-5.18-5.18h0a5.18,5.18,0,0,1,5.18-5.18h49.79a5.18,5.18,0,0,1,5.18,5.18Z"/><path class="cls-8" d="M1886.3,312.69a3.16,3.16,0,0,1-3.16,3.16h0a3.15,3.15,0,0,1-3.16-3.16v-.32a3.15,3.15,0,0,1,3.16-3.16h0a3.16,3.16,0,0,1,3.16,3.16Z"/><path class="cls-8" d="M1885.85,342.54a2.71,2.71,0,0,1-2.71,2.71h0a2.71,2.71,0,0,1-2.71-2.71V320.72a2.71,2.71,0,0,1,2.71-2.71h0a2.71,2.71,0,0,1,2.71,2.71Z"/><path class="cls-8" d="M1928.39,328.59A17.44,17.44,0,1,1,1911,311.15,17.44,17.44,0,0,1,1928.39,328.59Z"/><path class="cls-25" d="M1926.77,328.59A15.81,15.81,0,1,1,1911,312.78,15.81,15.81,0,0,1,1926.77,328.59Z"/><path class="cls-12" d="M1854.65,247.52a2.87,2.87,0,0,1-2.88,2.87h-43.56a2.87,2.87,0,0,1-2.88-2.87h0a2.88,2.88,0,0,1,2.88-2.88h43.56a2.88,2.88,0,0,1,2.88,2.88Z"/><path class="cls-12" d="M1858,352a2.87,2.87,0,0,1-2.87,2.88h-50.34A2.87,2.87,0,0,1,1802,352h0a2.86,2.86,0,0,1,2.87-2.87h50.34A2.86,2.86,0,0,1,1858,352Z"/><rect class="cls-13" x="1795.85" y="248.09" width="68.27" height="104.11" rx="6.77"/><path class="cls-27" d="M1860.07,239.46a5.18,5.18,0,0,1-5.19,5.18h-49.79a5.18,5.18,0,0,1-5.18-5.18h0a5.18,5.18,0,0,1,5.18-5.18h49.79a5.18,5.18,0,0,1,5.19,5.18Z"/><path class="cls-8" d="M1805.33,255.8a3.15,3.15,0,0,1-3.16,3.16h0a3.16,3.16,0,0,1-3.16-3.16v-.32a3.16,3.16,0,0,1,3.16-3.16h0a3.15,3.15,0,0,1,3.16,3.16Z"/><path class="cls-8" d="M1804.88,342.54a2.71,2.71,0,0,1-2.71,2.71h0a2.71,2.71,0,0,1-2.71-2.71V263.83a2.71,2.71,0,0,1,2.71-2.71h0a2.71,2.71,0,0,1,2.71,2.71Z"/><rect class="cls-8" x="1809.16" y="261.12" width="41.65" height="78.33" rx="6.77"/><rect class="cls-20" x="1810.94" y="262.79" width="38.1" height="74.43" rx="6.08"/><circle class="cls-8" cx="1829.99" cy="300.28" r="13.25" transform="translate(254.69 1278.78) rotate(-41.17)"/><rect class="cls-8" x="1810.05" y="294.11" width="39.88" height="12.35"/><rect class="cls-6" x="1722.89" y="362.34" width="394.6" height="26.63" rx="7.44"/><rect class="cls-9" x="1722.89" y="354.9" width="394.6" height="26.63" rx="7.44"/><rect class="cls-8" x="1373.96" y="92.68" width="282.35" height="290.32"/><rect class="cls-37" x="1373.96" y="331.08" width="282.35" height="91.92"/><rect class="cls-37" x="1373.97" y="92.68" width="282.35" height="217.47"/><rect class="cls-38" x="1373.97" y="92.68" width="282.35" height="217.47"/><path class="cls-39" d="M1374,252.78v24.46l243.6-1c-52.06-8.94-104.5-14.22-148.73-41.72-2.25.26-5.86-1-11.71-4.68v2.36l-5.61-1.84-2.59-2s-8.2,4.23-8.38,4-2.25-3-2.25-3.54l-5.78,2s-.78-2-.6-2.42c0,0-6.71,3.91-8.8,4C1405.39,243.75,1388.43,252.55,1374,252.78Z"/><path class="cls-40" d="M1655.8,249.88V276l-281.33,1.21c60.4-10.37,120-16.68,171.26-48.59,2.61.3,6.81-1.14,13.59-5.42V226l6.51-2.13,3-2.29s9.51,4.9,9.71,4.6,2.61-3.51,2.61-4.11l6.71,2.31s.9-2.31.7-2.8c0,0,7.79,4.53,10.2,4.66C1619.33,239.41,1639,249.62,1655.8,249.88Z"/><path class="cls-41" d="M1656.31,271.61v38.46l-.22.09-11.79,4.43s-40.58,0-45.69-2.1c-1.3-.54-10-.74-22.69-.77-37.18-.07-108.05,1.44-122.19.77-18.93-.91-79.77,0-79.77,0V275.68h0c.19,0,2.07.43,4.74.84,1.6.23,3.48.48,5.45.67h0a44.62,44.62,0,0,0,9.45,0l.69-.08h0c6.88-.85,8.5,0,18.67-2.07,10.51-2.1,38,1.3,52.69.41s13.86,1.22,20.18,1.22,12.63-1.49,18.93-1.49,10.23-.91,17.44-3.72,6.91-2,13.82.11,14.43,3.91,23.15,0c8.32-3.74,15.26-.62,30-.07.7,0,1.41,0,2.14.07,16.23.3,16.53-2.41,24-2.41s7.21.91,12,1.2,13.22-1.8,18.32-1.2a60.41,60.41,0,0,1,10,2.25Z"/><path class="cls-42" d="M1656.31,283.58v49.13l-44.22.23c-79,.4-236.33,1-238.13-.22v-49.6h0c.69.05,2.25,2,5.12,0s11.16-2.91,13.18-2.91,4.24,2.91,4.24,2.91a39.13,39.13,0,0,1,6.26-1c3.79-.34,2.46-2.57,10,0s6.25,3.24,12.06,3.24,6.93-1.56,14.52,0,12.29.67,21.22-.23,11.17-3.35,18.32-1.11,12.07,5.8,17.87,5.8h15.86s12.74,2.68,17.2,3.57,16.31,1.8,24.36,0,8.26-3.35,16.07-3.35,22.12-1.11,22.12-1.11,9.15-2.68,13.4-4.24,6.72-.22,13.52,0,6.81-.22,13.07-.45,6.7,1.79,13,.89Z"/><path class="cls-40" d="M1656.31,325.17v18.95s-60.84-.91-79.78,0-139.77-2.11-144.87,0-45.69,2.1-45.69,2.1l-12-4.52V303.24h0a61.2,61.2,0,0,1,10.5-2.41c5.11-.6,13.53,1.5,18.33,1.21s4.52-1.21,12-1.21,7.81,2.71,24.05,2.41,23.43-3.9,32.15,0,16.23,2.1,23.15,0,6.61-2.91,13.82-.11,11.12,3.72,17.44,3.72,12.61,1.49,18.93,1.49,2.1.61,16.83,1.51c1.07.07,2.25.17,3.5.31,3.27.32,7.11.89,11.22,1.56,15.87,2.61,35.84,7.1,43.58,8.65,10.53,2.1,9.63,1,17.14,2S1656.31,325.17,1656.31,325.17Z"/><path class="cls-8" d="M1588.57,221.54c.2.49-.7,2.8-.7,2.8l-6.71-2.31c0,.6-2.4,3.81-2.61,4.11s-9.71-4.6-9.71-4.6l-3,2.29-6.51,2.13v-2.73c-6.78,4.28-11,5.72-13.59,5.42a258.87,258.87,0,0,0,22.9-16s7.82.9,9.92,0c6.78,4.68,13.55,9.29,20.22,13.58C1596.36,226.07,1588.57,221.54,1588.57,221.54Z"/><path class="cls-8" d="M1431.91,228.34c-.18.43.6,2.42.6,2.42l5.78-2c0,.52,2.08,3.28,2.25,3.54s8.38-4,8.38-4l2.59,2,5.61,1.84V229.8c5.85,3.69,9.46,4.94,11.71,4.68a225.29,225.29,0,0,1-19.74-13.83s-6.73.78-8.55,0c-5.84,4-11.68,8-17.43,11.71C1425.2,232.25,1431.91,228.34,1431.91,228.34Z"/><path class="cls-39" d="M1656.31,335.55v13.9s-33.17,5.38-54.23,7.16-22.86,1.35-41.68,6.73-38.55.45-55.13.45-14.79-1.8-28.23-2.25-42.58,1.35-62.3,4-40.78,4.49-40.78,4.49v-39s10.31-.46,22-.46,17-1.79,35-5.82,30-1.79,52.88-1.79,30.47,0,54.24,3.13,20.17,3.14,42.12,3.14c12.74,0,18.54.45,24.67,1.8,2.26.49,4.58,1.11,7.3,1.86s5.59,1.6,9.27,2.61C1639.27,340.48,1656.31,335.55,1656.31,335.55Z"/><path class="cls-43" d="M1656.31,335.55v13.9s-33.17,5.38-54.23,7.16-22.86,1.35-41.68,6.73-38.55.45-55.13.45-14.79-1.8-28.23-2.25-42.58,1.35-62.3,4-40.78,4.49-40.78,4.49v-39s10.31-.46,22-.46,17-1.79,35-5.82,30-1.79,52.88-1.79,30.47,0,54.24,3.13,20.17,3.14,42.12,3.14c12.74,0,18.54.45,24.67,1.8,2.26.49,4.58,1.11,7.3,1.86s5.59,1.6,9.27,2.61C1639.27,340.48,1656.31,335.55,1656.31,335.55Z"/><path class="cls-39" d="M1531.8,162.72a16.64,16.64,0,0,1-7.59,14h0a16.67,16.67,0,1,1-10.14-30.62c.36,0,.71,0,1.07,0A16.67,16.67,0,0,1,1531.8,162.72Z"/><path class="cls-8" d="M1431.52,164.82s-11.14,1.52-19.24-1.49c-7.83-2.89-28.72-3.84-38.31-9V133.82q15.19-4,23.22,8c7.37.83,12.23,8,11,11.62,5.47-1,9.53,1.69,12.32,7.76C1420.54,161.22,1425.79,164.82,1431.52,164.82Z"/><path class="cls-8" d="M1656.31,140v22.42a68.32,68.32,0,0,1-21.88,2.1c-15.28,5.52-38,10.75-38,10.75,13.37-8,19-9.15,19-9.15,7.25-12.45,19-17.72,34.17-17.49A26.94,26.94,0,0,1,1656.31,140Z"/></g></g></svg>